<mxfile host="app.diagrams.net" modified="2023-09-28T14:55:42.435Z" agent="Mozilla/5.0 (X11; Linux x86_64) AppleWebKit/537.36 (KHTML, like Gecko) Chrome/114.0.0.0 Safari/537.36" etag="3SSu-v4WrqBN4qfpm-3D" version="22.0.0" type="github">
  <diagram name="Page-1" id="0ebVGF5TbNXIxLDT_eXQ">
    <mxGraphModel dx="2004" dy="1125" grid="1" gridSize="10" guides="1" tooltips="1" connect="1" arrows="1" fold="1" page="1" pageScale="1" pageWidth="850" pageHeight="1100" math="0" shadow="0">
      <root>
        <mxCell id="0" />
        <mxCell id="1" parent="0" />
        <mxCell id="ZSe5r9IjfXKwLyXhujQG-1" value="1" style="rounded=0;whiteSpace=wrap;html=1;fillColor=#dae8fc;strokeColor=#6c8ebf;" vertex="1" parent="1">
          <mxGeometry x="274" y="215" width="40" height="160" as="geometry" />
        </mxCell>
        <mxCell id="ZSe5r9IjfXKwLyXhujQG-2" value="2" style="rounded=0;whiteSpace=wrap;html=1;fillColor=#dae8fc;strokeColor=#6c8ebf;" vertex="1" parent="1">
          <mxGeometry x="314" y="215" width="40" height="160" as="geometry" />
        </mxCell>
        <mxCell id="ZSe5r9IjfXKwLyXhujQG-3" value="3" style="rounded=0;whiteSpace=wrap;html=1;fillColor=#dae8fc;strokeColor=#6c8ebf;" vertex="1" parent="1">
          <mxGeometry x="354" y="215" width="40" height="160" as="geometry" />
        </mxCell>
        <mxCell id="ZSe5r9IjfXKwLyXhujQG-4" value="4" style="rounded=0;whiteSpace=wrap;html=1;fillColor=#dae8fc;strokeColor=#6c8ebf;" vertex="1" parent="1">
          <mxGeometry x="394" y="215" width="40" height="160" as="geometry" />
        </mxCell>
        <mxCell id="ZSe5r9IjfXKwLyXhujQG-5" value="5" style="rounded=0;whiteSpace=wrap;html=1;fillColor=#dae8fc;strokeColor=#6c8ebf;" vertex="1" parent="1">
          <mxGeometry x="434" y="215" width="40" height="160" as="geometry" />
        </mxCell>
        <mxCell id="ZSe5r9IjfXKwLyXhujQG-6" value="" style="endArrow=classic;html=1;rounded=0;" edge="1" parent="1">
          <mxGeometry width="50" height="50" relative="1" as="geometry">
            <mxPoint x="210" y="410" as="sourcePoint" />
            <mxPoint x="210" y="160" as="targetPoint" />
          </mxGeometry>
        </mxCell>
        <mxCell id="ZSe5r9IjfXKwLyXhujQG-15" value="SOC" style="edgeLabel;html=1;align=center;verticalAlign=middle;resizable=0;points=[];" vertex="1" connectable="0" parent="ZSe5r9IjfXKwLyXhujQG-6">
          <mxGeometry x="0.24" relative="1" as="geometry">
            <mxPoint y="25" as="offset" />
          </mxGeometry>
        </mxCell>
        <mxCell id="ZSe5r9IjfXKwLyXhujQG-7" value="" style="endArrow=classic;html=1;rounded=0;" edge="1" parent="1">
          <mxGeometry width="50" height="50" relative="1" as="geometry">
            <mxPoint x="210" y="410" as="sourcePoint" />
            <mxPoint x="590" y="410" as="targetPoint" />
          </mxGeometry>
        </mxCell>
        <mxCell id="ZSe5r9IjfXKwLyXhujQG-16" value="Cell Number" style="edgeLabel;html=1;align=center;verticalAlign=middle;resizable=0;points=[];" vertex="1" connectable="0" parent="ZSe5r9IjfXKwLyXhujQG-7">
          <mxGeometry x="-0.1737" relative="1" as="geometry">
            <mxPoint as="offset" />
          </mxGeometry>
        </mxCell>
        <mxCell id="ZSe5r9IjfXKwLyXhujQG-8" value="1" style="rounded=0;whiteSpace=wrap;html=1;fillColor=#dae8fc;strokeColor=#6c8ebf;" vertex="1" parent="1">
          <mxGeometry x="274" y="567.5" width="40" height="115" as="geometry" />
        </mxCell>
        <mxCell id="ZSe5r9IjfXKwLyXhujQG-9" value="2" style="rounded=0;whiteSpace=wrap;html=1;fillColor=#dae8fc;strokeColor=#6c8ebf;" vertex="1" parent="1">
          <mxGeometry x="314" y="560" width="40" height="160" as="geometry" />
        </mxCell>
        <mxCell id="ZSe5r9IjfXKwLyXhujQG-10" value="3" style="rounded=0;whiteSpace=wrap;html=1;fillColor=#dae8fc;strokeColor=#6c8ebf;" vertex="1" parent="1">
          <mxGeometry x="354" y="550" width="40" height="120" as="geometry" />
        </mxCell>
        <mxCell id="ZSe5r9IjfXKwLyXhujQG-11" value="4" style="rounded=0;whiteSpace=wrap;html=1;fillColor=#dae8fc;strokeColor=#6c8ebf;" vertex="1" parent="1">
          <mxGeometry x="394" y="600" width="40" height="130" as="geometry" />
        </mxCell>
        <mxCell id="ZSe5r9IjfXKwLyXhujQG-12" value="5" style="rounded=0;whiteSpace=wrap;html=1;fillColor=#dae8fc;strokeColor=#6c8ebf;" vertex="1" parent="1">
          <mxGeometry x="434" y="580" width="40" height="140" as="geometry" />
        </mxCell>
        <mxCell id="ZSe5r9IjfXKwLyXhujQG-13" value="" style="endArrow=classic;html=1;rounded=0;" edge="1" parent="1">
          <mxGeometry width="50" height="50" relative="1" as="geometry">
            <mxPoint x="210" y="740" as="sourcePoint" />
            <mxPoint x="210" y="490" as="targetPoint" />
          </mxGeometry>
        </mxCell>
        <mxCell id="ZSe5r9IjfXKwLyXhujQG-17" value="SOC" style="edgeLabel;html=1;align=center;verticalAlign=middle;resizable=0;points=[];" vertex="1" connectable="0" parent="ZSe5r9IjfXKwLyXhujQG-13">
          <mxGeometry x="-0.008" y="-2" relative="1" as="geometry">
            <mxPoint as="offset" />
          </mxGeometry>
        </mxCell>
        <mxCell id="ZSe5r9IjfXKwLyXhujQG-14" value="" style="endArrow=classic;html=1;rounded=0;" edge="1" parent="1">
          <mxGeometry width="50" height="50" relative="1" as="geometry">
            <mxPoint x="210" y="740" as="sourcePoint" />
            <mxPoint x="590" y="740" as="targetPoint" />
          </mxGeometry>
        </mxCell>
        <mxCell id="ZSe5r9IjfXKwLyXhujQG-18" value="Cell Number" style="edgeLabel;html=1;align=center;verticalAlign=middle;resizable=0;points=[];" vertex="1" connectable="0" parent="ZSe5r9IjfXKwLyXhujQG-14">
          <mxGeometry x="-0.2263" y="-2" relative="1" as="geometry">
            <mxPoint as="offset" />
          </mxGeometry>
        </mxCell>
        <mxCell id="ZSe5r9IjfXKwLyXhujQG-19" value="1" style="rounded=0;whiteSpace=wrap;html=1;fillColor=#dae8fc;strokeColor=#6c8ebf;" vertex="1" parent="1">
          <mxGeometry x="274" y="840" width="40" height="115" as="geometry" />
        </mxCell>
        <mxCell id="ZSe5r9IjfXKwLyXhujQG-20" value="2" style="rounded=0;whiteSpace=wrap;html=1;fillColor=#dae8fc;strokeColor=#6c8ebf;" vertex="1" parent="1">
          <mxGeometry x="314" y="840" width="40" height="160" as="geometry" />
        </mxCell>
        <mxCell id="ZSe5r9IjfXKwLyXhujQG-21" value="3" style="rounded=0;whiteSpace=wrap;html=1;fillColor=#dae8fc;strokeColor=#6c8ebf;" vertex="1" parent="1">
          <mxGeometry x="354" y="840" width="40" height="120" as="geometry" />
        </mxCell>
        <mxCell id="ZSe5r9IjfXKwLyXhujQG-22" value="4" style="rounded=0;whiteSpace=wrap;html=1;fillColor=#dae8fc;strokeColor=#6c8ebf;" vertex="1" parent="1">
          <mxGeometry x="394" y="840" width="40" height="130" as="geometry" />
        </mxCell>
        <mxCell id="ZSe5r9IjfXKwLyXhujQG-23" value="5" style="rounded=0;whiteSpace=wrap;html=1;fillColor=#dae8fc;strokeColor=#6c8ebf;" vertex="1" parent="1">
          <mxGeometry x="434" y="840" width="40" height="140" as="geometry" />
        </mxCell>
        <mxCell id="ZSe5r9IjfXKwLyXhujQG-24" value="" style="endArrow=classic;html=1;rounded=0;" edge="1" parent="1">
          <mxGeometry width="50" height="50" relative="1" as="geometry">
            <mxPoint x="210" y="1030" as="sourcePoint" />
            <mxPoint x="210" y="780" as="targetPoint" />
          </mxGeometry>
        </mxCell>
        <mxCell id="ZSe5r9IjfXKwLyXhujQG-25" value="SOC" style="edgeLabel;html=1;align=center;verticalAlign=middle;resizable=0;points=[];" vertex="1" connectable="0" parent="ZSe5r9IjfXKwLyXhujQG-24">
          <mxGeometry x="-0.008" y="-2" relative="1" as="geometry">
            <mxPoint as="offset" />
          </mxGeometry>
        </mxCell>
        <mxCell id="ZSe5r9IjfXKwLyXhujQG-26" value="" style="endArrow=classic;html=1;rounded=0;" edge="1" parent="1">
          <mxGeometry width="50" height="50" relative="1" as="geometry">
            <mxPoint x="210" y="1030" as="sourcePoint" />
            <mxPoint x="590" y="1030" as="targetPoint" />
          </mxGeometry>
        </mxCell>
        <mxCell id="ZSe5r9IjfXKwLyXhujQG-27" value="Cell Number" style="edgeLabel;html=1;align=center;verticalAlign=middle;resizable=0;points=[];" vertex="1" connectable="0" parent="ZSe5r9IjfXKwLyXhujQG-26">
          <mxGeometry x="-0.2263" y="-2" relative="1" as="geometry">
            <mxPoint as="offset" />
          </mxGeometry>
        </mxCell>
      </root>
    </mxGraphModel>
  </diagram>
</mxfile>
